<?xml version="1.0" encoding="UTF-8" standalone="no"?>
<svg
   id="visual"
   viewBox="0 0 960 215.91603"
   width="960"
   height="215.91603"
   version="1.1"
   sodipodi:docname="wave-down.svg"
   inkscape:version="1.2.2 (732a01da63, 2022-12-09)"
   xmlns:inkscape="http://www.inkscape.org/namespaces/inkscape"
   xmlns:sodipodi="http://sodipodi.sourceforge.net/DTD/sodipodi-0.dtd"
   xmlns="http://www.w3.org/2000/svg"
   xmlns:svg="http://www.w3.org/2000/svg">
  <defs
     id="defs970" />
  <sodipodi:namedview
     id="namedview968"
     pagecolor="#505050"
     bordercolor="#eeeeee"
     borderopacity="1"
     inkscape:showpageshadow="0"
     inkscape:pageopacity="0"
     inkscape:pagecheckerboard="0"
     inkscape:deskcolor="#505050"
     showgrid="false"
     inkscape:zoom="1.5037037"
     inkscape:cx="399.34729"
     inkscape:cy="270"
     inkscape:window-width="1920"
     inkscape:window-height="986"
     inkscape:window-x="-11"
     inkscape:window-y="-11"
     inkscape:window-maximized="1"
     inkscape:current-layer="visual" />
  <path
     d="m 0,190 11.5,2.5 C 23,195 46,200 68.8,203.3 c 22.9,3.4 45.5,5 68.4,1.7 22.8,-3.3 45.8,-11.7 68.6,-17.5 22.9,-5.8 45.5,-9.2 68.4,-0.7 22.8,8.5 45.8,28.9 68.6,27.7 22.9,-1.2 45.5,-23.8 68.4,-27.7 C 434,183 457,198 480,207 c 23,9 46,12 68.8,5.2 22.9,-6.9 45.5,-23.5 68.4,-26.9 22.8,-3.3 45.8,6.7 68.6,14.7 22.9,8 45.5,14 68.4,9 22.8,-5 45.8,-21 68.6,-19 22.9,2 45.5,22 68.4,20.5 C 914,209 937,186 948.5,174.5 L 960,163 V 0 H 948.5 C 937,0 914,0 891.2,0 868.3,0 845.7,0 822.8,0 800,0 777,0 754.2,0 731.3,0 708.7,0 685.8,0 663,0 640,0 617.2,0 594.3,0 571.7,0 548.8,0 526,0 503,0 480,0 457,0 434,0 411.2,0 388.3,0 365.7,0 342.8,0 320,0 297,0 274.2,0 251.3,0 228.7,0 205.8,0 183,0 160,0 137.2,0 114.3,0 91.7,0 68.8,0 46,0 23,0 11.5,0 H 0 Z"
     fill="#008f05"
     id="path961" />
  <path
     d="m 0,150 11.5,3 c 11.5,3 34.5,9 57.3,9 22.9,0 45.5,-6 68.4,-12.2 22.8,-6.1 45.8,-12.5 68.6,-18.3 22.9,-5.8 45.5,-11.2 68.4,-11.3 22.8,-0.2 45.8,4.8 68.6,9.6 22.9,4.9 45.5,9.5 68.4,15 22.8,5.5 45.8,11.9 68.8,7.2 23,-4.7 46,-20.3 68.8,-21.5 22.9,-1.2 45.5,12.2 68.4,14.5 22.8,2.3 45.8,-6.3 68.6,-9 22.9,-2.7 45.5,0.7 68.4,-3.3 22.8,-4 45.8,-15.4 68.6,-11.2 22.9,4.2 45.5,23.8 68.4,26.2 C 914,150 937,135 948.5,127.5 L 960,120 V 0 H 948.5 C 937,0 914,0 891.2,0 868.3,0 845.7,0 822.8,0 800,0 777,0 754.2,0 731.3,0 708.7,0 685.8,0 663,0 640,0 617.2,0 594.3,0 571.7,0 548.8,0 526,0 503,0 480,0 457,0 434,0 411.2,0 388.3,0 365.7,0 342.8,0 320,0 297,0 274.2,0 251.3,0 228.7,0 205.8,0 183,0 160,0 137.2,0 114.3,0 91.7,0 68.8,0 46,0 23,0 11.5,0 H 0 Z"
     fill="#006904"
     id="path963" />
  <path
     d="m 0,60 11.5,7.3 c 11.5,7.4 34.5,22 57.3,21.5 22.9,-0.5 45.5,-16.1 68.4,-15.6 22.8,0.5 45.8,17.1 68.6,12.1 22.9,-5 45.5,-31.6 68.4,-32.8 22.8,-1.2 45.8,23.2 68.6,33 22.9,9.8 45.5,5.2 68.4,7.3 C 434,95 457,104 480,97.3 503,90.7 526,68.3 548.8,54.7 571.7,41 594.3,36 617.2,47.3 640,58.7 663,86.3 685.8,95.7 708.7,105 731.3,96 754.2,84 777,72 800,57 822.8,46.3 845.7,35.7 868.3,29.3 891.2,31.7 914,34 937,45 948.5,50.5 L 960,56 V 0 H 948.5 C 937,0 914,0 891.2,0 868.3,0 845.7,0 822.8,0 800,0 777,0 754.2,0 731.3,0 708.7,0 685.8,0 663,0 640,0 617.2,0 594.3,0 571.7,0 548.8,0 526,0 503,0 480,0 457,0 434,0 411.2,0 388.3,0 365.7,0 342.8,0 320,0 297,0 274.2,0 251.3,0 228.7,0 205.8,0 183,0 160,0 137.2,0 114.3,0 91.7,0 68.8,0 46,0 23,0 11.5,0 H 0 Z"
     fill="#004502"
     id="path965" />
</svg>
