<?xml version="1.0" encoding="UTF-8" standalone="no"?>
<svg
   id="visual"
   viewBox="0 0 960 243"
   width="960"
   height="243"
   version="1.1"
   sodipodi:docname="wave-up.svg"
   inkscape:version="1.2.2 (732a01da63, 2022-12-09)"
   xmlns:inkscape="http://www.inkscape.org/namespaces/inkscape"
   xmlns:sodipodi="http://sodipodi.sourceforge.net/DTD/sodipodi-0.dtd"
   xmlns="http://www.w3.org/2000/svg"
   xmlns:svg="http://www.w3.org/2000/svg">
  <defs
     id="defs271" />
  <sodipodi:namedview
     id="namedview269"
     pagecolor="#505050"
     bordercolor="#eeeeee"
     borderopacity="1"
     inkscape:showpageshadow="0"
     inkscape:pageopacity="0"
     inkscape:pagecheckerboard="0"
     inkscape:deskcolor="#505050"
     showgrid="false"
     inkscape:zoom="0.75185185"
     inkscape:cx="354.45813"
     inkscape:cy="118.37438"
     inkscape:window-width="1920"
     inkscape:window-height="986"
     inkscape:window-x="-11"
     inkscape:window-y="-11"
     inkscape:window-maximized="1"
     inkscape:current-layer="visual" />
  <path
     d="M 0,30 11.5,26.7 C 23,23.3 46,16.7 68.8,13.2 c 22.9,-3.5 45.5,-3.9 68.4,8.3 22.8,12.2 45.8,36.8 68.6,44.3 22.9,7.5 45.5,-2.1 68.4,-9.1 22.8,-7 45.8,-11.4 68.6,-19.4 22.9,-8 45.5,-19.6 68.4,-13.6 22.8,6 45.8,29.6 68.8,35.8 23,6.2 46,-5.2 68.8,-15.7 C 571.7,33.3 594.3,23.7 617.2,17.3 640,11 663,8 685.8,4.7 c 22.9,-3.4 45.5,-7 68.4,2.5 22.8,9.5 45.8,32.1 68.6,43.6 22.9,11.5 45.5,11.9 68.4,1.5 C 914,42 937,21 948.5,10.5 L 960,0 v 243 h -11.5 c -11.5,0 -34.5,0 -57.3,0 -22.9,0 -45.5,0 -68.4,0 -22.8,0 -45.8,0 -68.6,0 -22.9,0 -45.5,0 -68.4,0 -22.8,0 -45.8,0 -68.6,0 -22.9,0 -45.5,0 -68.4,0 -22.8,0 -45.8,0 -68.8,0 -23,0 -46,0 -68.8,0 -22.9,0 -45.5,0 -68.4,0 -22.8,0 -45.8,0 -68.6,0 -22.9,0 -45.5,0 -68.4,0 -22.8,0 -45.8,0 -68.6,0 -22.9,0 -45.5,0 -68.4,0 -22.8,0 -45.8,0 -57.3,0 H 0 Z"
     fill="#008f05"
     id="path262" />
  <path
     d="m 0,119 11.5,2.3 c 11.5,2.4 34.5,7 57.3,-0.5 22.9,-7.5 45.5,-27.1 68.4,-27.5 22.8,-0.3 45.8,18.7 68.6,28.5 22.9,9.9 45.5,10.5 68.4,10.9 22.8,0.3 45.8,0.3 68.6,-9.9 22.9,-10.1 45.5,-30.5 68.4,-28 22.8,2.5 45.8,27.9 68.8,26.4 23,-1.5 46,-29.9 68.8,-43 22.9,-13.2 45.5,-11.2 68.4,-1.5 22.8,9.6 45.8,27 68.6,32.5 22.9,5.5 45.5,-0.9 68.4,2.6 22.8,3.5 45.8,16.9 68.6,21.4 22.9,4.5 45.5,0.1 68.4,-13 C 914,107 937,85 948.5,74 L 960,63 v 180 h -11.5 c -11.5,0 -34.5,0 -57.3,0 -22.9,0 -45.5,0 -68.4,0 -22.8,0 -45.8,0 -68.6,0 -22.9,0 -45.5,0 -68.4,0 -22.8,0 -45.8,0 -68.6,0 -22.9,0 -45.5,0 -68.4,0 -22.8,0 -45.8,0 -68.8,0 -23,0 -46,0 -68.8,0 -22.9,0 -45.5,0 -68.4,0 -22.8,0 -45.8,0 -68.6,0 -22.9,0 -45.5,0 -68.4,0 -22.8,0 -45.8,0 -68.6,0 -22.9,0 -45.5,0 -68.4,0 -22.8,0 -45.8,0 -57.3,0 H 0 Z"
     fill="#006904"
     id="path264" />
  <path
     d="m 0,153 11.5,2.5 c 11.5,2.5 34.5,7.5 57.3,14 22.9,6.5 45.5,14.5 68.4,22.2 22.8,7.6 45.8,15 68.6,13.8 22.9,-1.2 45.5,-10.8 68.4,-12.3 22.8,-1.5 45.8,5.1 68.6,3.8 22.9,-1.3 45.5,-10.7 68.4,-17 22.8,-6.3 45.8,-9.7 68.8,-7.2 23,2.5 46,10.9 68.8,6.7 22.9,-4.2 45.5,-20.8 68.4,-17.8 22.8,3 45.8,25.6 68.6,34 22.9,8.3 45.5,2.3 68.4,1 22.8,-1.4 45.8,2 68.6,-1.7 22.9,-3.7 45.5,-14.3 68.4,-12.8 22.8,1.5 45.8,15.1 57.3,22 L 960,211 v 32 h -11.5 c -11.5,0 -34.5,0 -57.3,0 -22.9,0 -45.5,0 -68.4,0 -22.8,0 -45.8,0 -68.6,0 -22.9,0 -45.5,0 -68.4,0 -22.8,0 -45.8,0 -68.6,0 -22.9,0 -45.5,0 -68.4,0 -22.8,0 -45.8,0 -68.8,0 -23,0 -46,0 -68.8,0 -22.9,0 -45.5,0 -68.4,0 -22.8,0 -45.8,0 -68.6,0 -22.9,0 -45.5,0 -68.4,0 -22.8,0 -45.8,0 -68.6,0 -22.9,0 -45.5,0 -68.4,0 -22.8,0 -45.8,0 -57.3,0 H 0 Z"
     fill="#004502"
     id="path266" />
</svg>
